<?xml version="1.0" encoding="UTF-8" standalone="no"?>
<!DOCTYPE svg PUBLIC "-//W3C//DTD SVG 1.1//EN"
 "http://www.w3.org/Graphics/SVG/1.1/DTD/svg11.dtd">
<!-- Generated by graphviz version 2.43.0 (0)
 -->
<!-- Title: %3 Pages: 1 -->
<svg width="957pt" height="730pt"
 viewBox="0.00 0.00 957.08 730.06" xmlns="http://www.w3.org/2000/svg" xmlns:xlink="http://www.w3.org/1999/xlink">
<g id="graph0" class="graph" transform="scale(1 1) rotate(0) translate(4 726.06)">
<title>%3</title>
<polygon fill="white" stroke="transparent" points="-4,4 -4,-726.06 953.08,-726.06 953.08,4 -4,4"/>
<!-- A -->
<g id="node1" class="node">
<title>A</title>
<image xlink:href="icon_router.png" width="166px" height="113px" preserveAspectRatio="xMinYMin meet" x="783.078" y="-461.035"/>
<text text-anchor="middle" x="866.08" y="-397.03" font-family="Times,serif" font-size="30.00" fill="red">A</text>
</g>
<!-- B -->
<g id="node2" class="node">
<title>B</title>
<image xlink:href="icon_router.png" width="166px" height="113px" preserveAspectRatio="xMinYMin meet" x="522.052" y="-722.061"/>
<text text-anchor="middle" x="605.05" y="-658.06" font-family="Times,serif" font-size="30.00" fill="red">B</text>
</g>
<!-- A&#45;&#45;B -->
<g id="edge1" class="edge">
<title>A&#45;&#45;B</title>
<path fill="none" stroke="blue" d="M809.44,-461.17C765.66,-504.96 705.34,-565.28 661.58,-609.03"/>
<text text-anchor="middle" x="726" y="-544.11" font-family="Times,serif" font-size="30.00" fill="blue">1</text>
</g>
<!-- C -->
<g id="node3" class="node">
<title>C</title>
<image xlink:href="icon_router.png" width="166px" height="113px" preserveAspectRatio="xMinYMin meet" x="609.061" y="-374.026"/>
<text text-anchor="middle" x="692.06" y="-310.03" font-family="Times,serif" font-size="30.00" fill="red">C</text>
</g>
<!-- A&#45;&#45;C -->
<g id="edge2" class="edge">
<title>A&#45;&#45;C</title>
<path fill="none" stroke="blue" d="M782.89,-362.94C780.36,-361.67 777.82,-360.41 775.29,-359.14"/>
<text text-anchor="middle" x="769.59" y="-370.04" font-family="Times,serif" font-size="30.00" fill="blue">4</text>
</g>
<!-- B&#45;&#45;C -->
<g id="edge3" class="edge">
<title>B&#45;&#45;C</title>
<path fill="none" stroke="blue" d="M619.23,-608.87C635.41,-544.15 661.72,-438.9 677.89,-374.19"/>
<text text-anchor="middle" x="639.06" y="-500.53" font-family="Times,serif" font-size="30.00" fill="blue">2</text>
</g>
<!-- D -->
<g id="node4" class="node">
<title>D</title>
<image xlink:href="icon_router.png" width="166px" height="113px" preserveAspectRatio="xMinYMin meet" x="261.026" y="-374.026"/>
<text text-anchor="middle" x="344.03" y="-310.03" font-family="Times,serif" font-size="30.00" fill="red">D</text>
</g>
<!-- B&#45;&#45;D -->
<g id="edge4" class="edge">
<title>B&#45;&#45;D</title>
<path fill="none" stroke="blue" d="M562.53,-608.87C513.99,-544.15 435.06,-438.9 386.53,-374.19"/>
<text text-anchor="middle" x="465.03" y="-500.53" font-family="Times,serif" font-size="30.00" fill="blue">9</text>
</g>
<!-- G -->
<g id="node7" class="node">
<title>G</title>
<image xlink:href="icon_router.png" width="166px" height="113px" preserveAspectRatio="xMinYMin meet" x="87.0087" y="-548.043"/>
<text text-anchor="middle" x="170.01" y="-484.04" font-family="Times,serif" font-size="30.00" fill="red">G</text>
</g>
<!-- B&#45;&#45;G -->
<g id="edge5" class="edge">
<title>B&#45;&#45;G</title>
<path fill="none" stroke="blue" d="M521.94,-632.32C444.75,-601.44 330.41,-555.7 253.19,-524.82"/>
<text text-anchor="middle" x="378.08" y="-554.57" font-family="Times,serif" font-size="30.00" fill="blue">4</text>
</g>
<!-- H -->
<g id="node8" class="node">
<title>H</title>
<image xlink:href="icon_router.png" width="166px" height="113px" preserveAspectRatio="xMinYMin meet" x="261.026" y="-722.061"/>
<text text-anchor="middle" x="344.03" y="-658.06" font-family="Times,serif" font-size="30.00" fill="red">H</text>
</g>
<!-- B&#45;&#45;H -->
<g id="edge6" class="edge">
<title>B&#45;&#45;H</title>
<path fill="none" stroke="blue" d="M521.74,-665.56C491.61,-665.56 457.59,-665.56 427.44,-665.56"/>
<text text-anchor="middle" x="465.09" y="-674.56" font-family="Times,serif" font-size="30.00" fill="blue">2</text>
</g>
<!-- C&#45;&#45;D -->
<g id="edge7" class="edge">
<title>C&#45;&#45;D</title>
<path fill="none" stroke="blue" d="M608.7,-317.53C553.8,-317.53 482.2,-317.53 427.31,-317.53"/>
<text text-anchor="middle" x="508.5" y="-326.53" font-family="Times,serif" font-size="30.00" fill="blue">1</text>
</g>
<!-- E -->
<g id="node5" class="node">
<title>E</title>
<image xlink:href="icon_router.png" width="166px" height="113px" preserveAspectRatio="xMinYMin meet" x="348.035" y="-113"/>
<text text-anchor="middle" x="431.03" y="-49" font-family="Times,serif" font-size="30.00" fill="red">E</text>
</g>
<!-- C&#45;&#45;E -->
<g id="edge8" class="edge">
<title>C&#45;&#45;E</title>
<path fill="none" stroke="blue" d="M635.42,-260.89C591.64,-217.1 531.32,-156.78 487.56,-113.03"/>
<text text-anchor="middle" x="551.98" y="-195.95" font-family="Times,serif" font-size="30.00" fill="blue">3</text>
</g>
<!-- D&#45;&#45;E -->
<g id="edge9" class="edge">
<title>D&#45;&#45;E</title>
<path fill="none" stroke="blue" d="M362.91,-260.89C377.5,-217.1 397.61,-156.78 412.19,-113.03"/>
<text text-anchor="middle" x="378.05" y="-195.95" font-family="Times,serif" font-size="30.00" fill="blue">1</text>
</g>
<!-- F -->
<g id="node6" class="node">
<title>F</title>
<image xlink:href="icon_router.png" width="166px" height="113px" preserveAspectRatio="xMinYMin meet" x="0" y="-200.009"/>
<text text-anchor="middle" x="83" y="-136.01" font-family="Times,serif" font-size="30.00" fill="red">F</text>
</g>
<!-- D&#45;&#45;F -->
<g id="edge10" class="edge">
<title>D&#45;&#45;F</title>
<path fill="none" stroke="blue" d="M260.72,-261.99C230.58,-241.9 196.56,-219.21 166.41,-199.12"/>
<text text-anchor="middle" x="204.07" y="-239.55" font-family="Times,serif" font-size="30.00" fill="blue">3</text>
</g>
<!-- D&#45;&#45;G -->
<g id="edge11" class="edge">
<title>D&#45;&#45;G</title>
<path fill="none" stroke="blue" d="M287.05,-374.51C267.62,-393.93 245.91,-415.64 226.52,-435.03"/>
<text text-anchor="middle" x="247.27" y="-380.78" font-family="Times,serif" font-size="30.00" fill="blue">1</text>
</g>
<!-- E&#45;&#45;F -->
<g id="edge12" class="edge">
<title>E&#45;&#45;F</title>
<path fill="none" stroke="blue" d="M347.67,-77.34C292.77,-91.07 221.17,-108.97 166.29,-122.69"/>
<text text-anchor="middle" x="247.47" y="-109.02" font-family="Times,serif" font-size="30.00" fill="blue">1</text>
</g>
<!-- F&#45;&#45;G -->
<g id="edge13" class="edge">
<title>F&#45;&#45;G</title>
<path fill="none" stroke="blue" d="M97.17,-200.2C113.35,-264.92 139.66,-370.17 155.84,-434.88"/>
<text text-anchor="middle" x="117.01" y="-326.54" font-family="Times,serif" font-size="30.00" fill="blue">6</text>
</g>
<!-- G&#45;&#45;H -->
<g id="edge14" class="edge">
<title>G&#45;&#45;H</title>
<path fill="none" stroke="blue" d="M226.99,-548.52C246.42,-567.95 268.12,-589.66 287.51,-609.05"/>
<text text-anchor="middle" x="238.26" y="-587.8" font-family="Times,serif" font-size="30.00" fill="blue">14</text>
</g>
</g>
</svg>
